<svg xmlns="http://www.w3.org/2000/svg" xmlns:xlink="http://www.w3.org/1999/xlink" contentStyleType="text/css" data-diagram-type="DESCRIPTION" height="542px" preserveAspectRatio="none" style="width:1187px;height:542px;background:#FFFFFF;" version="1.1" viewBox="0 0 1187 542" width="1187px" zoomAndPan="magnify"><title>C4-C2 (Simplificado, sin includes) &#8212; PQRS Lakehouse PoC</title><defs/><g><g class="title" data-source-line="1"><text fill="#000000" font-family="Arial" font-size="14" font-weight="bold" lengthAdjust="spacing" textLength="395.9648" x="388.5479" y="23.1318">C4-C2 (Simplificado, sin includes) &#8212; PQRS Lakehouse PoC</text></g><!--entity Analyst--><g class="entity" data-entity="Analyst" data-source-line="11" data-uid="ent0002" id="entity_Analyst"><ellipse cx="1033.3845" cy="56.7486" fill="#F1F1F1" rx="8" ry="8" style="stroke:#181818;stroke-width:0.5;"/><path d="M1033.3845,64.7486 L1033.3845,91.7486 M1020.3845,72.7486 L1046.3845,72.7486 M1033.3845,91.7486 L1020.3845,106.7486 M1033.3845,91.7486 L1046.3845,106.7486" fill="none" style="stroke:#181818;stroke-width:0.5;"/><text fill="#000000" font-family="Arial" font-size="14" lengthAdjust="spacing" textLength="118.2891" x="974.24" y="121.3805">Analista/Operaci&#243;n</text></g><!--entity Admin--><g class="entity" data-entity="Admin" data-source-line="12" data-uid="ent0003" id="entity_Admin"><ellipse cx="823.3812" cy="56.7486" fill="#F1F1F1" rx="8" ry="8" style="stroke:#181818;stroke-width:0.5;"/><path d="M823.3812,64.7486 L823.3812,91.7486 M810.3812,72.7486 L836.3812,72.7486 M823.3812,91.7486 L810.3812,106.7486 M823.3812,91.7486 L836.3812,106.7486" fill="none" style="stroke:#181818;stroke-width:0.5;"/><text fill="#000000" font-family="Arial" font-size="14" lengthAdjust="spacing" textLength="96.4824" x="775.14" y="121.3805">Profesor/Admin</text></g><!--entity Students--><g class="entity" data-entity="Students" data-source-line="13" data-uid="ent0004" id="entity_Students"><ellipse cx="235.3803" cy="56.7486" fill="#F1F1F1" rx="8" ry="8" style="stroke:#181818;stroke-width:0.5;"/><path d="M235.3803,64.7486 L235.3803,91.7486 M222.3803,72.7486 L248.3803,72.7486 M235.3803,91.7486 L222.3803,106.7486 M235.3803,91.7486 L248.3803,106.7486" fill="none" style="stroke:#181818;stroke-width:0.5;"/><text fill="#000000" font-family="Arial" font-size="14" lengthAdjust="spacing" textLength="120.6406" x="175.06" y="121.3805">Equipo Estudiantes</text></g><!--entity GEN--><g class="entity" data-entity="GEN" data-source-line="16" data-uid="ent0005" id="entity_GEN"><rect fill="#F1F1F1" height="84.3945" rx="6" ry="6" style="stroke:#181818;stroke-width:0.5;" width="230.8887" x="19.94" y="220.5886"/><text fill="#000000" font-family="Arial" font-size="14" lengthAdjust="spacing" textLength="197.668" x="29.94" y="243.7205">Generadores de eventos PQRS</text><text fill="#000000" font-family="Arial" font-size="14" lengthAdjust="spacing" textLength="79.3721" x="29.94" y="259.8191">(Python Job)</text><text fill="#000000" font-family="Arial" font-size="14" lengthAdjust="spacing" textLength="210.8887" x="29.94" y="275.9177">- Simula llegada diaria multifuente</text><text fill="#000000" font-family="Arial" font-size="14" lengthAdjust="spacing" textLength="188.2617" x="29.94" y="292.0164">- Produce RAW (JSONL/CSV)</text></g><!--entity SCHED--><g class="entity" data-entity="SCHED" data-source-line="18" data-uid="ent0006" id="entity_SCHED"><rect fill="#F1F1F1" height="84.3945" rx="6" ry="6" style="stroke:#181818;stroke-width:0.5;" width="197.4336" x="339.67" y="44.0986"/><text fill="#000000" font-family="Arial" font-size="14" lengthAdjust="spacing" textLength="63.041" x="349.67" y="67.2305">Scheduler</text><text fill="#000000" font-family="Arial" font-size="14" lengthAdjust="spacing" textLength="123.7031" x="349.67" y="83.3291">(Cron/Task Runner)</text><text fill="#000000" font-family="Arial" font-size="14" lengthAdjust="spacing" textLength="177.4336" x="349.67" y="99.4277">- Orquesta generaci&#243;n diaria</text><text fill="#000000" font-family="Arial" font-size="14" lengthAdjust="spacing" textLength="140.0547" x="349.67" y="115.5264">- Ejecuta runs/backfills</text></g><!--entity LAKE--><g class="entity" data-entity="LAKE" data-source-line="20" data-uid="ent0007" id="entity_LAKE"><rect fill="#F1F1F1" height="116.5918" rx="6" ry="6" style="stroke:#181818;stroke-width:0.5;" width="198.1992" x="158.28" y="412.0886"/><text fill="#000000" font-family="Arial" font-size="14" lengthAdjust="spacing" textLength="63.8203" x="168.28" y="435.2205">Data Lake</text><text fill="#000000" font-family="Arial" font-size="14" lengthAdjust="spacing" textLength="147.8203" x="168.28" y="451.3191">(MinIO - S3 compatible)</text><text fill="#000000" font-family="Arial" font-size="14" lengthAdjust="spacing" textLength="35" x="168.28" y="467.4177">- raw/</text><text fill="#000000" font-family="Arial" font-size="14" lengthAdjust="spacing" textLength="117.4961" x="168.28" y="483.5164">- bronze/ (Parquet)</text><text fill="#000000" font-family="Arial" font-size="14" lengthAdjust="spacing" textLength="107.3584" x="168.28" y="499.615">- silver/ (Parquet)</text><text fill="#000000" font-family="Arial" font-size="14" lengthAdjust="spacing" textLength="178.1992" x="168.28" y="515.7136">- Particiones: source= , day=</text></g><!--entity ETL--><g class="entity" data-entity="ETL" data-source-line="22" data-uid="ent0008" id="entity_ETL"><rect fill="#F1F1F1" height="116.5918" rx="6" ry="6" style="stroke:#181818;stroke-width:0.5;" width="223.875" x="528.45" y="204.4986"/><text fill="#000000" font-family="Arial" font-size="14" lengthAdjust="spacing" textLength="139.2891" x="538.45" y="227.6305">Pipeline ETL/Analytics</text><text fill="#000000" font-family="Arial" font-size="14" lengthAdjust="spacing" textLength="156.8027" x="538.45" y="243.7291">(Python + opcional Dask)</text><text fill="#000000" font-family="Arial" font-size="14" lengthAdjust="spacing" textLength="157.9443" x="538.45" y="259.8277">- raw &#8594; bronze (Parquet)</text><text fill="#000000" font-family="Arial" font-size="14" lengthAdjust="spacing" textLength="161.8271" x="538.45" y="275.9264">- bronze &#8594; silver (curado)</text><text fill="#000000" font-family="Arial" font-size="14" lengthAdjust="spacing" textLength="203.875" x="538.45" y="292.025">- carga Postgres: silver_*, gold_*</text><text fill="#000000" font-family="Arial" font-size="14" lengthAdjust="spacing" textLength="162.627" x="538.45" y="308.1236">- registra meta_* y calidad</text></g><!--entity DB--><g class="entity" data-entity="DB" data-source-line="24" data-uid="ent0009" id="entity_DB"><path d="M759.78,425.6386 C759.78,415.6386 869.3864,415.6386 869.3864,415.6386 C869.3864,415.6386 978.9929,415.6386 978.9929,425.6386 L978.9929,515.1318 C978.9929,525.1318 869.3864,525.1318 869.3864,525.1318 C869.3864,525.1318 759.78,525.1318 759.78,515.1318 L759.78,425.6386" fill="#F1F1F1" style="stroke:#181818;stroke-width:0.5;"/><path d="M759.78,425.6386 C759.78,435.6386 869.3864,435.6386 869.3864,435.6386 C869.3864,435.6386 978.9929,435.6386 978.9929,425.6386" fill="none" style="stroke:#181818;stroke-width:0.5;"/><text fill="#000000" font-family="Arial" font-size="14" lengthAdjust="spacing" textLength="130.7305" x="769.78" y="452.7705">Warehouse / Serving</text><text fill="#000000" font-family="Arial" font-size="14" lengthAdjust="spacing" textLength="140.0684" x="769.78" y="468.8691">(Postgres - Supabase)</text><text fill="#000000" font-family="Arial" font-size="14" lengthAdjust="spacing" textLength="199.2129" x="769.78" y="484.9677">- meta_* (etl_runs, data_quality)</text><text fill="#000000" font-family="Arial" font-size="14" lengthAdjust="spacing" textLength="110.4756" x="769.78" y="501.0664">- silver_* (curado)</text><text fill="#000000" font-family="Arial" font-size="14" lengthAdjust="spacing" textLength="161.0889" x="769.78" y="517.165">- gold_* (KPIs/agregados)</text></g><!--entity DASH--><g class="entity" data-entity="DASH" data-source-line="26" data-uid="ent0010" id="entity_DASH"><rect fill="#F1F1F1" height="68.2959" rx="6" ry="6" style="stroke:#181818;stroke-width:0.5;" width="219.9648" x="923.4" y="228.6386"/><text fill="#000000" font-family="Arial" font-size="14" lengthAdjust="spacing" textLength="140.8545" x="933.4" y="251.7705">Dashboards (opcional)</text><text fill="#000000" font-family="Arial" font-size="14" lengthAdjust="spacing" textLength="199.9648" x="933.4" y="267.8691">(Grafana / Metabase / Streamlit)</text><text fill="#000000" font-family="Arial" font-size="14" lengthAdjust="spacing" textLength="171.1992" x="933.4" y="283.9677">- Consume gold_* y meta_*</text></g><!--entity NB--><g class="entity" data-entity="NB" data-source-line="28" data-uid="ent0011" id="entity_NB"><rect fill="#F1F1F1" height="84.3945" rx="6" ry="6" style="stroke:#181818;stroke-width:0.5;" width="158.5166" x="311.13" y="220.5886"/><text fill="#000000" font-family="Arial" font-size="14" lengthAdjust="spacing" textLength="138.5166" x="321.13" y="243.7205">Exploraci&#243;n (opcional)</text><text fill="#000000" font-family="Arial" font-size="14" lengthAdjust="spacing" textLength="55.2344" x="321.13" y="259.8191">(Jupyter)</text><text fill="#000000" font-family="Arial" font-size="14" lengthAdjust="spacing" textLength="117.5029" x="321.13" y="275.9177">- Consultas ad-hoc</text><text fill="#000000" font-family="Arial" font-size="14" lengthAdjust="spacing" textLength="73.1514" x="321.13" y="292.0164">- Validaci&#243;n</text></g><!--link SCHED to GEN--><g class="link" data-entity-1="SCHED" data-entity-2="GEN" data-source-line="31" data-uid="lnk12" id="link_SCHED_GEN"><path d="M339.3,120.7586 C289.84,137.6586 239.4,155.2686 234.38,158.4986 C208.79,174.9486 188.9109,194.7413 171.0809,215.6713" fill="none" id="SCHED-to-GEN" style="stroke:#181818;stroke-width:1;"/><polygon fill="#181818" points="167.19,220.2386,176.0713,215.9815,170.4324,216.4325,169.9814,210.7936,167.19,220.2386" style="stroke:#181818;stroke-width:1;"/><text fill="#000000" font-family="Arial" font-size="13" lengthAdjust="spacing" textLength="158.9834" x="235.38" y="171.6925">programa generaci&#243;n diaria</text></g><!--link SCHED to ETL--><g class="link" data-entity-1="SCHED" data-entity-2="ETL" data-source-line="32" data-uid="lnk13" id="link_SCHED_ETL"><path d="M537.32,115.6286 C560.67,126.0686 583.83,140.0286 601.38,158.4986 C613.4,171.1386 619.7741,182.201 625.6141,198.481" fill="none" id="SCHED-to-ETL" style="stroke:#181818;stroke-width:1;"/><polygon fill="#181818" points="627.64,204.1286,628.3662,194.3066,625.9517,199.4223,620.836,197.0078,627.64,204.1286" style="stroke:#181818;stroke-width:1;"/><text fill="#000000" font-family="Arial" font-size="13" lengthAdjust="spacing" textLength="141.6099" x="613.36" y="171.6925">programa runs / backfills</text></g><!--link GEN to LAKE--><g class="link" data-entity-1="GEN" data-entity-2="LAKE" data-source-line="34" data-uid="lnk14" id="link_GEN_LAKE"><path d="M124.77,305.4486 C120.98,329.1986 120.23,358.7686 132.38,382.0886 C138.75,394.2886 143.298,401.0401 153.498,410.5801" fill="none" id="GEN-to-LAKE" style="stroke:#181818;stroke-width:1;"/><polygon fill="#181818" points="157.88,414.6786,154.0393,405.6095,154.2283,411.2632,148.5746,411.4522,157.88,414.6786" style="stroke:#181818;stroke-width:1;"/><text fill="#000000" font-family="Arial" font-size="13" lengthAdjust="spacing" textLength="75.8481" x="135.9064" y="364.2825">escribe RAW</text><text fill="#000000" font-family="Arial" font-size="13" lengthAdjust="spacing" textLength="80.9009" x="133.38" y="379.2312">(JSONL/CSV)</text></g><!--link ETL to LAKE--><g class="link" data-entity-1="ETL" data-entity-2="LAKE" data-source-line="35" data-uid="lnk15" id="link_ETL_LAKE"><path d="M528.03,306.7686 C499.56,319.4786 469.62,334.4886 443.38,351.0886 C425.54,362.3786 424.58,369.8386 407.38,382.0886 C391.43,393.4486 379.0465,401.5677 361.7865,411.9877" fill="none" id="ETL-to-LAKE" style="stroke:#181818;stroke-width:1;"/><polygon fill="#181818" points="356.65,415.0886,366.4221,413.8615,360.9304,412.5045,362.2875,407.0128,356.65,415.0886" style="stroke:#181818;stroke-width:1;"/><text fill="#000000" font-family="Arial" font-size="13" lengthAdjust="spacing" textLength="109.0718" x="493.5172" y="364.2825">lee RAW/BRONZE</text><text fill="#000000" font-family="Arial" font-size="13" lengthAdjust="spacing" textLength="207.3462" x="444.38" y="379.2312">escribe BRONZE/SILVER (Parquet)</text></g><!--link ETL to DB--><g class="link" data-entity-1="ETL" data-entity-2="DB" data-source-line="36" data-uid="lnk16" id="link_ETL_DB"><path d="M752.45,297.1286 C780.98,310.1186 809.46,327.6686 830.38,351.0886 C846.23,368.8286 854.1793,387.3442 859.7793,409.3342" fill="none" id="ETL-to-DB" style="stroke:#181818;stroke-width:1;"/><polygon fill="#181818" points="861.26,415.1486,862.9152,405.4399,860.0261,410.3033,855.1627,407.4141,861.26,415.1486" style="stroke:#181818;stroke-width:1;"/><text fill="#000000" font-family="Arial" font-size="13" lengthAdjust="spacing" textLength="122.8271" x="849.6" y="364.2825">carga SILVER/GOLD</text><text fill="#000000" font-family="Arial" font-size="13" lengthAdjust="spacing" textLength="85.5981" x="868.2145" y="379.2312">+ META (SQL)</text></g><!--link DASH to DB--><g class="link" data-entity-1="DASH" data-entity-2="DB" data-source-line="38" data-uid="lnk17" id="link_DASH_DB"><path d="M1028.25,297.2986 C1023.06,322.5586 1013.04,357.0186 994.38,382.0886 C985.3,394.2986 978.6288,401.6231 966.5488,411.5331" fill="none" id="DASH-to-DB" style="stroke:#181818;stroke-width:1;"/><polygon fill="#181818" points="961.91,415.3386,971.4052,412.7229,965.7756,412.1674,966.3312,406.5379,961.91,415.3386" style="stroke:#181818;stroke-width:1;"/><text fill="#000000" font-family="Arial" font-size="13" lengthAdjust="spacing" textLength="166.9307" x="1012.13" y="371.7825">consulta KPIs/observabilidad</text></g><!--link NB to DB--><g class="link" data-entity-1="NB" data-entity-2="DB" data-source-line="39" data-uid="lnk18" id="link_NB_DB"><path d="M469.99,304.7486 C483.58,310.7886 497.72,316.5086 511.38,321.0886 C573.79,341.9786 598.22,320.2986 656.38,351.0886 C673.89,360.3486 672.15,370.7486 688.38,382.0886 C710.27,397.3686 729.8659,408.6404 754.1159,420.6804" fill="none" id="NB-to-DB" style="stroke:#181818;stroke-width:1;"/><polygon fill="#181818" points="759.49,423.3486,753.2077,415.7636,755.0116,421.1251,749.6501,422.929,759.49,423.3486" style="stroke:#181818;stroke-width:1;"/><text fill="#000000" font-family="Arial" font-size="13" lengthAdjust="spacing" textLength="132.958" x="689.38" y="371.7825">consultas exploratorias</text></g><!--link NB to LAKE--><g class="link" data-entity-1="NB" data-entity-2="LAKE" data-source-line="40" data-uid="lnk19" id="link_NB_LAKE"><path d="M310.76,296.8286 C288.49,310.2186 266.96,328.0686 254.38,351.0886 C244.43,369.2986 242.3073,385.5689 243.9773,405.8389" fill="none" id="NB-to-LAKE" style="stroke:#181818;stroke-width:1;"/><polygon fill="#181818" points="244.47,411.8186,247.7175,402.5206,244.0595,406.8355,239.7445,403.1775,244.47,411.8186" style="stroke:#181818;stroke-width:1;"/><text fill="#000000" font-family="Arial" font-size="13" lengthAdjust="spacing" textLength="147.3989" x="255.38" y="371.7825">lectura Parquet (si aplica)</text></g><!--link Analyst to DASH--><g class="link" data-entity-1="Analyst" data-entity-2="DASH" data-source-line="42" data-uid="lnk20" id="link_Analyst_DASH"><path d="M1033.38,124.7286 C1033.38,155.4786 1033.38,192.6286 1033.38,222.2586" fill="none" id="Analyst-to-DASH" style="stroke:#181818;stroke-width:1;"/><polygon fill="#181818" points="1033.38,228.2586,1037.38,219.2586,1033.38,223.2586,1029.38,219.2586,1033.38,228.2586" style="stroke:#181818;stroke-width:1;"/><text fill="#000000" font-family="Arial" font-size="13" lengthAdjust="spacing" textLength="136.5635" x="1034.38" y="171.6925">analiza indicadores (UI)</text></g><!--link Admin to ETL--><g class="link" data-entity-1="Admin" data-entity-2="ETL" data-source-line="43" data-uid="lnk21" id="link_Admin_ETL"><path d="M812.41,124.4986 C806.16,141.1486 797,160.1986 784.38,174.4986 C774.81,185.3486 768.3514,191.6606 756.4214,200.6006" fill="none" id="Admin-to-ETL" style="stroke:#181818;stroke-width:1;"/><polygon fill="#181818" points="751.62,204.1986,761.2209,202.0025,755.6212,201.2002,756.4235,195.6006,751.62,204.1986" style="stroke:#181818;stroke-width:1;"/><text fill="#000000" font-family="Arial" font-size="13" lengthAdjust="spacing" textLength="120.6753" x="796.19" y="171.6925">ejecuta / audita (CLI)</text></g><!--link Students to GEN--><g class="link" data-entity-1="Students" data-entity-2="GEN" data-source-line="44" data-uid="lnk22" id="link_Students_GEN"><path d="M174.64,89.2886 C124.71,94.5286 56.79,110.7186 22.38,158.4986 C6,181.2486 17.4022,199.337 42.2422,216.807" fill="none" id="Students-to-GEN" style="stroke:#181818;stroke-width:1;"/><polygon fill="#181818" points="47.15,220.2586,42.0894,211.8093,43.0602,217.3823,37.4873,218.353,47.15,220.2586" style="stroke:#181818;stroke-width:1;"/><text fill="#000000" font-family="Arial" font-size="13" lengthAdjust="spacing" textLength="170.5171" x="23.38" y="171.6925">ajusta simulaci&#243;n (CLI/config)</text></g><!--link Students to ETL--><g class="link" data-entity-1="Students" data-entity-2="ETL" data-source-line="45" data-uid="lnk23" id="link_Students_ETL"><path d="M295.99,116.6286 C304.8,120.7086 313.8,124.7686 322.38,128.4986 C355.7,142.9386 365.22,143.6986 398.38,158.4986 C412.9,164.9786 415.92,167.8786 430.38,174.4986 C461.8,188.8586 490.7386,201.298 522.5086,214.488" fill="none" id="Students-to-ETL" style="stroke:#181818;stroke-width:1;"/><polygon fill="#181818" points="528.05,216.7886,521.2717,209.6434,523.4322,214.8714,518.2041,217.032,528.05,216.7886" style="stroke:#181818;stroke-width:1;"/><text fill="#000000" font-family="Arial" font-size="13" lengthAdjust="spacing" textLength="161.1543" x="431.38" y="171.6925">desarrolla y ejecuta pipeline</text></g><!--SRC=[RLNRRXit47tVhnZufIl7mY9fdmoaW2vRnuuiAPBh08K1OxGxaXXHv9eNEqfH84_vWA9_qa_ed-HBEkIkv9NR9wt8mpc7CsU6JZX9CFYfEtW3wLniAocMei1Idu4L2eGgf2_9Tk3xrxzW-c4sXn5kQAsz9PZgGPBOZL0L6jo2NVEn9w5Mi4HfgRLZg72eLapqUm8mqrwL0sqK6NZz9lcZ1UmPevzkrgBOAB8MNhUsIbgYb-uNhTmOjyHGWJ99Ve1UuRGXcs3uXPEUGYcimsnIaS52_FEtEW6q4DPtrkrXKwENPBN9UkLMD8ZmjT_F7xoeDEJM-LAWScGZPiv_IJaRY0SiXHILaVtvYYSNl6WmBhDge4S-e6rCtfrAfpktrWgkzA9pfxh0AVSIGKfQOOd0N7mlu3KdbfuFKW2nsD8N1BFUHqYlvfFnA1lCRpjHqKK-Jjhiys9DfPTac6jWjCfkq6vWvXMBYemJy-294mIhg3DcgE4Ds_adAZpl6gziji1YinHIDfSVlCk7HsH3P6Gm19DT2tKv0RxHZr3eROLEB2H5HeDFMVXTi9mlb44wnQ31nKqhv2EP5ulyxKGXDBlW7Apsfg2tS0Obxjv69QFU-_n8o5HK98KYo6z6MImrdxVFwNu5kWhnKCAGyx6N1T-__Td8EXRGh8NjMY2aXGz5ZRi5cXMo_QrRcQWmGkvFps2bPNb_6gFJYcrek9RayFuKTdnAYXBBU06McIGbPs-1t4Wd7z4qFPN1dCmZDr7GtX24fFegGYDz4p4b9-z3cK9YUEN1Cu7RjR8QG2tPjJX8tqylROOScIsdRMsZOVz5OUrweT6K5j9zvZX6Uc5mYGfPvZKrubcnCuHRveuit1RMSuCsRBj6RitIcxyxuia_LrBlJNZ4TEMhdMii6qDAnm6mxAvr4TPkOpQV-tlS3pqv8ucrRvBeLkXsVmuj0kTG6RtYGV9_lczXkJ1jR4Wlt_3G1qaIWWLWi20ZoHP6B69h1j67tan2e1PEKiHa_Tba_5j-f_Rdwl_P_79qcy-UFNWuFkppuTflDIQxc8o6T-eLNEStFHxP7qQT90bvRS6RT44ij5vOTXGkH7HVCkx_5sY1wZhmw1DezvY3zCAnYQ3H1gaLWFnE5CZCpLYjOmOLvu1X0dz1VZlA-9841wU_NdQIE61RMQPcr6I0F6Jv8nsC6BQViQtQuISV9fQDmx8n2sCpli1Ih5uSgOFpeuNycaWUhhi3KzMCYUHV]--></g></svg>